<?xml version="1.0" encoding="UTF-8" standalone="no"?>
<!-- Created with Inkscape (http://www.inkscape.org/) -->

<svg
   width="210mm"
   height="297mm"
   viewBox="0 0 210 297"
   version="1.1"
   id="svg5"
   inkscape:version="1.1.1 (3bf5ae0d25, 2021-09-20)"
   sodipodi:docname="explosions.svg"
   xmlns:inkscape="http://www.inkscape.org/namespaces/inkscape"
   xmlns:sodipodi="http://sodipodi.sourceforge.net/DTD/sodipodi-0.dtd"
   xmlns="http://www.w3.org/2000/svg"
   xmlns:svg="http://www.w3.org/2000/svg">
  <sodipodi:namedview
     id="namedview7"
     pagecolor="#ffffff"
     bordercolor="#666666"
     borderopacity="1.0"
     inkscape:pageshadow="2"
     inkscape:pageopacity="0.0"
     inkscape:pagecheckerboard="0"
     inkscape:document-units="mm"
     showgrid="false"
     inkscape:zoom="1.4823793"
     inkscape:cx="164.93754"
     inkscape:cy="356.52143"
     inkscape:window-width="2560"
     inkscape:window-height="1377"
     inkscape:window-x="1923"
     inkscape:window-y="-8"
     inkscape:window-maximized="1"
     inkscape:current-layer="layer1" />
  <defs
     id="defs2" />
  <g
     inkscape:label="Layer 1"
     inkscape:groupmode="layer"
     id="layer1">
    <g
       id="g13340"
       transform="matrix(0.45278391,0,0,0.43114485,-8.4329057,-28.213547)"
       inkscape:export-filename="C:\Users\meleu\OneDrive\Desktop\robo-spiders-in-space\assets\explosion1.png"
       inkscape:export-xdpi="96"
       inkscape:export-ydpi="96">
      <path
         style="fill:#917c6f;stroke:none;stroke-width:0.265;stroke-linecap:butt;stroke-linejoin:miter;stroke-miterlimit:4;stroke-dasharray:none;stroke-opacity:1"
         d="m 29.628606,107.6268 c 0.416466,0.41647 0.823783,0.84229 1.249399,1.2494 2.134481,2.04168 2.797713,2.85663 5.176083,4.28366 1.272598,0.76356 3.691927,1.43756 4.283651,3.21274 0.112885,0.33865 0.140618,0.7428 0,1.07091 -0.117181,0.27342 -0.40242,0.44787 -0.535456,0.71394 -2.265531,4.53107 -0.05023,0.41469 -1.249399,3.21274 -0.165719,0.38668 -0.647904,0.5501 -0.892426,0.89243 -0.109355,0.1531 -0.07413,0.37891 -0.178486,0.53546 -1.476618,2.21492 0.275484,-0.97294 -0.892429,1.07091 -1.137835,1.99121 -2.109562,4.25139 -3.748197,5.89002 -0.09407,0.0941 -0.262901,0.0844 -0.356971,0.17849 -0.61512,0.61512 -1.096255,1.38951 -1.784856,1.96334 -0.585315,0.48776 -1.230032,0.9057 -1.784855,1.42788 -0.460545,0.43346 -0.802195,0.98069 -1.249399,1.42789 -0.339253,0.33925 -1.343932,0.96133 -1.606371,1.42788 -0.758373,1.34822 -1.15661,2.87011 -1.784855,4.28366 -0.162093,0.36471 -0.43866,0.68372 -0.535457,1.07091 -0.08658,0.34631 0.05567,0.71831 0,1.07091 -0.216951,1.37403 -1.139828,3.69169 -0.892428,5.17609 0.243416,1.4605 4.155045,1.07091 4.462139,1.07091 6.237752,0 0.481831,0.13468 7.853366,-0.53546 1.781471,-0.16195 3.572475,-0.202 5.354568,-0.35697 4.236024,-0.36835 7.63057,-0.51647 11.423076,-2.14183 0.244557,-0.1048 0.455816,-0.29243 0.713941,-0.35697 0.05772,-0.0144 0,0.119 0,0.17849 0,0.95192 -0.03963,1.90467 0,2.85577 0.07363,1.76715 0.781124,2.92589 2.141828,4.10517 0.362477,0.31414 0.843847,0.4578 1.2494,0.71394 4.272634,2.6985 8.168637,4.54923 13.386416,4.10517 3.52002,-0.29958 6.538034,-0.93982 9.816709,-2.32032 0.383836,-0.16161 1.736685,-0.81308 1.96334,-1.60637 0.119896,-0.41964 -0.01908,-1.07091 0.535456,-1.07091 0.0595,0 0.15639,-0.0552 0.178485,0 0.112668,0.28167 0.01561,0.63649 0.178486,0.89243 0.459176,0.72156 1.78213,1.90312 2.677284,2.14182 5.254596,1.40123 11.418631,-0.67378 16.599162,-1.24939 7.35428,-0.81715 1.54404,0.0457 5.35456,-0.17849 1.54877,-0.0911 3.0899,-0.30998 4.64063,-0.35697 1.54039,-0.0467 1.48393,0.45383 2.67728,1.2494 1.44052,0.96034 4.19158,2.11608 6.06851,1.78485 1.56964,-0.27699 2.23045,-1.15046 3.56971,-1.78485 1.07298,-0.50825 7.73912,-2.85577 8.56731,-2.85577 2.39101,0 4.61252,1.94456 6.96094,2.32031 3.95203,0.63232 7.85758,-0.0559 11.78005,0.35697 0.5455,0.0574 1.0612,0.2964 1.60637,0.35697 3.27967,0.36441 8.98081,-0.21641 11.95853,-0.53545 1.61466,-0.173 3.23604,-0.3521 4.81911,-0.71395 0.51876,-0.11857 0.94161,-0.49782 1.42789,-0.71394 0.0981,-0.0436 0.69742,0.0661 0.71394,0 0.2453,-0.98122 0,-2.02283 0,-3.03425 0,-5.12553 -2.02178,-8.83344 -4.81911,-13.02945 -0.66004,-0.99006 -1.50643,-1.84972 -2.14183,-2.85577 -0.3552,-0.5624 -0.5502,-1.21447 -0.89243,-1.78485 -1.00948,-1.68248 -2.78557,-3.09199 -3.92668,-4.64063 -0.74336,-1.00884 -0.74711,-2.75204 0,-3.7482 1.30736,-1.74314 4.25408,-1.65833 5.35457,-3.56971 1.69417,-2.94251 1.95659,-5.68935 4.28365,-8.21033 4.87298,-5.27907 5.77137,-4.87894 9.9952,-9.10277 1.8828,-1.8828 1.24612,-1.62704 2.32031,-3.212738 1.02792,-1.517409 2.17778,-2.949517 3.21274,-4.462137 1.47696,-2.15864 1.53621,-2.658385 2.85577,-4.997598 0.81218,-1.439786 1.75952,-2.805105 2.4988,-4.283655 0.73402,-1.468046 4.28045,-9.46772 3.56971,-11.24459 -0.0494,-0.12352 -0.25809,-0.08949 -0.35697,-0.178485 -0.50032,-0.450288 -0.92317,-0.98254 -1.42789,-1.427885 -2.67635,-2.361486 -6.95372,-3.296016 -10.35216,-4.105168 -4.01743,-0.95653 -8.68359,-2.036318 -12.67248,-2.498798 -0.51476,-0.05968 -5.47929,-0.356178 -6.78245,0.535457 -0.76385,0.522631 -1.26331,1.357905 -1.96334,1.963341 -1.50397,1.30073 -3.13705,2.44702 -4.64063,3.748197 -2.30434,1.994139 -5.57045,5.51103 -8.38882,7.139424 -2.50208,1.445649 -9.0398,3.338735 -11.24459,3.748196 -1.81712,0.337466 -3.68879,0.236694 -5.53305,0.356971 -0.89252,0.05821 -1.78672,0.261329 -2.67729,0.178485 -2.95281,-0.27468 -5.24287,-0.776753 -7.85336,-1.963341 -1.04184,-0.473561 -1.98997,-1.13824 -3.03426,-1.60637 -0.68672,-0.30784 -1.46871,-0.377385 -2.14182,-0.713941 -1.65307,-0.826534 -2.97761,-2.227942 -4.64063,-3.034255 -2.97013,-1.440064 -6.69936,-2.687326 -9.99519,-3.034255 -2.037125,-0.214434 -1.866241,0.494044 -4.105169,1.963341 -0.981043,0.643808 -1.994797,1.240377 -3.034255,1.784856 -6.000303,3.143014 -8.536035,3.749751 -15.171274,1.96334 -2.54988,-0.686504 -4.841618,-2.117108 -7.317909,-3.034255 -1.394789,-0.516587 -2.860408,-0.817341 -4.283655,-1.249398 -5.113263,-1.55224 -10.217692,-3.15067 -15.349759,-4.640625 -1.177888,-0.341967 -2.396723,-0.534014 -3.569711,-0.892428 -0.97228,-0.297085 -1.886974,-0.76266 -2.85577,-1.070913 -0.990126,-0.31504 -2.032629,-0.437632 -3.034254,-0.713942 -2.703894,-0.745902 -5.437802,-1.501253 -8.210337,-1.963342 -7.802139,-1.300356 0.323329,0.08179 -4.283653,-0.356971 -0.805145,-0.07668 -2.93667,-0.604474 -3.926683,-0.356971 -0.932476,0.233119 -0.766964,1.765434 -1.070913,2.677284 -0.429439,1.288314 -1.356024,2.355076 -1.963342,3.569711 -1.87933,3.75866 -3.830234,8.171537 -3.21274,12.49399 0.146942,1.028597 0.502026,2.017056 0.713942,3.034255 0.0858,0.411853 0.0518,0.848233 0.178486,1.249399 0.513576,1.626325 1.549266,3.394813 2.498798,4.81911 0.759448,1.139174 2.024535,2.315213 3.034255,3.21274 0.540126,0.480113 2.448381,1.871708 3.034254,2.677285 1.128387,1.551529 1.427885,6.135219 1.427885,8.388819 z"
         id="path12465" />
      <path
         style="fill:#aa0000;stroke:none;stroke-width:0.264583px;stroke-linecap:butt;stroke-linejoin:miter;stroke-opacity:1"
         d="M 37.838942,102.80769 53.010216,101.3798 33.912259,80.675482 69.43089,91.027643 l -0.356973,-8.567306 13.921874,8.388821 15.528245,-6.06851 10.709144,9.638222 12.85096,-5.890023 2.67728,9.459736 44.26442,-8.56731 -27.1298,17.313097 10.35216,3.56971 -13.02945,6.78246 19.09796,25.52343 -36.23257,-11.78005 -7.13943,11.78005 -10.32581,-6.30381 -9.29656,8.19783 -12.326548,-7.96253 -15.885216,10.88762 -1.784855,-11.95853 -29.985577,7.67488 15.528246,-22.13221 z"
         id="path11428"
         sodipodi:nodetypes="ccccccccccccccccccccccccc" />
      <path
         style="fill:#ffff00;stroke:none;stroke-width:0.206191px;stroke-linecap:butt;stroke-linejoin:miter;stroke-opacity:1"
         d="m 49.033336,106.29895 12.421481,-1.05915 -15.636452,-15.357602 29.080879,7.678801 -0.292272,-6.35487 11.398534,6.222478 12.713751,-4.501368 8.768113,7.149231 10.52172,-4.368973 2.19203,7.016843 36.24149,-6.354879 -22.21252,12.842139 8.47583,2.64786 -10.66786,5.03095 15.63645,18.93222 -29.66542,-8.73795 -5.84541,8.73795 -8.45425,-4.67591 -7.611562,6.08081 -10.092361,-5.90627 -13.00602,8.07598 -1.46135,-8.87034 -24.550692,5.69291 12.713752,-16.41675 z"
         id="path11428-4"
         sodipodi:nodetypes="ccccccccccccccccccccccccc" />
      <path
         style="fill:#ffffe1;fill-opacity:1;stroke:none;stroke-width:0.141832px;stroke-linecap:butt;stroke-linejoin:miter;stroke-opacity:1"
         d="m 61.992559,108.93536 9.331979,-0.66706 -11.747314,-9.672259 21.84781,4.836129 -0.219578,-4.002313 8.563462,3.918933 9.55156,-2.83497 6.587282,4.50261 7.90473,-2.7516 1.64682,4.41924 27.22742,-4.00233 -16.68777,8.08802 6.3677,1.66763 -8.01452,3.16851 11.74731,11.92357 -22.28696,-5.50319 -4.39152,5.50319 -6.35149,-2.9449 -5.718402,3.82971 -7.582159,-3.71979 -9.77113,5.08628 -1.097879,-5.58657 -18.444383,3.58541 9.551556,-10.33932 z"
         id="path11428-4-8"
         sodipodi:nodetypes="ccccccccccccccccccccccccc" />
    </g>
    <path
       style="fill:#917c6f;stroke:none;stroke-width:0.117085;stroke-linecap:butt;stroke-linejoin:miter;stroke-miterlimit:4;stroke-dasharray:none;stroke-opacity:1"
       d="m 10.987258,81.876695 c 0.188569,0.179558 0.372996,0.363149 0.565708,0.538672 0.966458,0.88026 1.266759,1.231621 2.343647,1.846878 0.576212,0.329205 1.671645,0.619796 1.939568,1.385156 0.05111,0.146007 0.06367,0.320255 0,0.461718 -0.05306,0.117883 -0.182209,0.193096 -0.242446,0.307811 -1.025796,1.953548 -0.02274,0.178792 -0.565708,1.385156 -0.07503,0.166715 -0.29336,0.237173 -0.404076,0.384767 -0.04951,0.06601 -0.03356,0.163365 -0.08081,0.230861 -0.668589,0.954951 0.124734,-0.419478 -0.404078,0.461717 -0.515193,0.8585 -0.955176,1.832965 -1.697123,2.539452 -0.04259,0.04057 -0.119037,0.03639 -0.161631,0.07696 -0.278516,0.265206 -0.496366,0.59908 -0.808154,0.846484 -0.265021,0.210295 -0.556939,0.390488 -0.808154,0.615623 -0.208527,0.186884 -0.363221,0.422819 -0.565707,0.615627 -0.1536086,0.146266 -0.6085111,0.414473 -0.7273393,0.615624 -0.3433791,0.581278 -0.5236944,1.237433 -0.8081536,1.846877 -0.073393,0.157243 -0.1986182,0.294783 -0.2424463,0.461718 -0.039202,0.14931 0.025206,0.309695 0,0.461717 -0.098232,0.592406 -0.5160958,1.591653 -0.4040771,2.231645 0.1102149,0.629687 3.0839083,2.133822 3.2193643,2.102422 17.969357,-4.164872 -0.980814,-1.582635 2.356898,-1.871566 0.806622,-0.06982 1.617559,-0.08709 2.424462,-0.153906 1.918004,-0.158812 3.455,-0.222673 5.172185,-0.923439 0.110732,-0.04518 0.206387,-0.126079 0.323261,-0.153905 0.02614,-0.0062 0,0.05131 0,0.07695 0,0.410415 -0.01794,0.821188 0,1.23125 0.03334,0.761896 0.353681,1.261486 0.969786,1.769926 0.164124,0.13544 0.38208,0.19738 0.565708,0.30781 1.93458,1.16344 4.077252,3.53898 6.439779,3.34752 1.593808,-0.12916 2.581691,-1.9828 4.066223,-2.57799 0.173794,-0.0697 0.786343,-0.35056 0.888968,-0.69258 0.05429,-0.18093 -0.0086,-0.46172 0.242446,-0.46172 0.02694,0 0.07081,-0.0238 0.08082,0 0.05101,0.12144 0.0071,0.27442 0.08082,0.38477 0.207907,0.3111 0.80692,0.82052 1.212231,0.92343 2.379197,0.60414 5.170172,-0.29049 7.515834,-0.53866 3.329899,-0.35231 0.699116,0.0197 2.424458,-0.077 0.701258,-0.0393 1.399057,-0.13365 2.101203,-0.15391 0.697464,-0.0201 0.671899,0.19567 1.212229,0.53868 0.652244,0.41404 1.89788,0.91233 2.747724,0.76953 0.710708,-0.11943 1.009912,-0.49602 1.616307,-0.76953 0.485828,-0.21913 3.54276,-1.06552 3.87914,-1.23125 6.053143,-2.982319 4.360226,0.64907 5.423553,0.81108 1.789412,0.27263 1.286035,0.16521 3.062066,0.34321 0.246993,0.0248 0.480494,0.12779 0.727338,0.15391 1.484982,0.15711 4.066367,-0.0933 5.41463,-0.23086 0.731092,-0.0746 1.465227,-0.15181 2.182016,-0.30781 0.234886,-0.0511 0.426346,-0.21464 0.646525,-0.30782 0.04442,-0.0188 0.315781,0.0285 0.323261,0 0.111068,-0.42304 0,-0.87213 0,-1.3082 0,-2.209843 -0.915429,-3.80849 -2.182016,-5.617578 -0.298855,-0.426859 -0.682087,-0.797497 -0.969786,-1.23125 -0.160829,-0.242476 -0.249121,-0.523613 -0.404078,-0.769529 -0.457076,-0.725393 -1.261261,-1.333096 -1.777937,-2.000784 -0.336582,-0.434956 -0.33828,-1.186528 0,-1.616017 0.591951,-0.751546 1.48445,-1.219814 1.982734,-2.043895 0.767093,-1.268648 1.327641,-1.948101 2.381297,-3.035009 2.206407,-2.276044 2.613183,-2.10353 4.525666,-3.924612 0.852501,-0.81176 0.564223,-0.70149 1.050599,-1.385156 0.465425,-0.654223 0.986063,-1.271669 1.454677,-1.923827 0.668743,-0.930686 0.695571,-1.146149 1.293046,-2.154689 0.367742,-0.620756 0.796683,-1.209406 1.131417,-1.846875 0.332352,-0.632941 1.747084,-3.879768 1.425272,-4.645856 -0.02237,-0.05326 -0.233991,-0.134795 -0.278762,-0.173165 -0.226537,-0.19414 -1.119497,0.101449 -1.348026,-0.09056 -1.211808,-1.018142 -1.949552,-0.979331 -3.488311,-1.328193 -1.819028,-0.412403 -2.41729,-0.814844 -4.223395,-1.014241 -0.233076,-0.02573 -1.34506,0.09885 -1.93511,0.483277 -0.345859,0.22533 -1.518569,0.52235 -1.835531,0.78338 -0.680974,0.560803 -2.303864,0.865707 -2.984661,1.426703 -1.043368,0.859763 -3.531877,1.240177 -4.80799,1.942251 -1.132901,0.623284 -4.093076,1.439478 -5.091369,1.616015 -0.822763,0.145497 -1.670225,0.10205 -2.505276,0.153907 -0.404119,0.0251 -0.808998,0.11267 -1.212234,0.07695 C 54.09874,71.754361 53.061838,71.537895 51.87985,71.026303 51.408122,70.82213 50.978823,70.535557 50.505986,70.333725 50.19505,70.201001 49.840978,70.171017 49.536204,70.025913 48.787721,69.669557 48.18799,69.065347 47.435002,68.71771 46.090174,68.096833 44.401639,67.559083 42.90934,67.409506 c -0.922377,-0.09245 -0.845004,0.213005 -1.858754,0.846485 -0.444201,0.277574 -0.903212,0.534782 -1.373862,0.769531 -2.716841,1.355094 -3.864979,1.616686 -6.869309,0.846484 -1.154544,-0.295983 -2.192206,-0.91278 -3.313431,-1.308203 -0.631538,-0.222724 -1.295147,-0.352393 -1.93957,-0.538672 -2.315203,-0.66924 -4.626407,-1.358395 -6.950124,-2.000782 -0.533329,-0.147437 -1.085198,-0.230237 -1.616308,-0.384765 -0.440233,-0.128087 -0.854391,-0.328817 -1.293047,-0.461719 -0.448313,-0.135828 -0.920341,-0.188683 -1.373861,-0.307812 -1.22428,-0.321592 -2.462149,-0.647258 -3.717508,-0.846485 -3.5326834,-0.560642 0.146398,0.03526 -1.93957,-0.153906 -0.364556,-0.03306 -1.3296765,-0.260616 -1.7779385,-0.153906 -0.4222101,0.100508 -0.3472689,0.761157 -0.4848921,1.154297 -0.1944431,0.55545 -0.6139859,1.015379 -0.8889697,1.539062 -0.8509304,1.620527 -1.7342683,3.523116 -1.454677,5.38672 0.066533,0.443474 0.2273093,0.869643 0.3232615,1.308203 0.038849,0.177568 0.023454,0.365711 0.080816,0.538672 0.2325389,0.701182 0.7014827,1.463656 1.1314155,2.077734 0.3438658,0.491149 0.9166769,0.998193 1.3738618,1.385157 0.2445604,0.206998 1.1085875,0.806977 1.3738615,1.154297 0.510915,0.668934 0.646523,2.645169 0.646523,3.616797 z"
       id="path12465-9"
       sodipodi:nodetypes="cssssssscsscsssssssssssscssscsssscccsscssssscsssscsssssssssssssssssssssssscsssssssssssssssssssssssssc"
       inkscape:export-filename="C:\Users\meleu\OneDrive\Desktop\robo-spiders-in-space\assets\explosion2.png"
       inkscape:export-xdpi="96"
       inkscape:export-ydpi="96" />
    <path
       style="fill:#aa0000;stroke:none;stroke-width:0.13473px;stroke-linecap:butt;stroke-linejoin:miter;stroke-opacity:1"
       d="m 13.079722,79.920765 7.71959,-0.727663 -9.717602,-10.55107 18.072923,5.275535 -0.181639,-4.36596 7.083859,4.275004 7.901226,-3.092557 5.449127,4.911708 6.538946,-3.001599 1.362278,4.82075 22.523038,-4.365963 -13.804439,8.82288 5.267482,1.81915 -6.629766,3.456391 9.717603,13.006929 -18.436196,-6.003204 -3.632752,6.003204 -5.254075,-3.212472 -4.730362,4.177672 -6.27211,-4.057762 -8.082864,5.548412 -0.908187,-6.094155 -15.257543,3.911175 7.901228,-11.278735 z"
       id="path11428-0"
       sodipodi:nodetypes="ccccccccccccccccccccccccc"
       inkscape:export-filename="C:\Users\meleu\OneDrive\Desktop\robo-spiders-in-space\assets\explosion2.png"
       inkscape:export-xdpi="96"
       inkscape:export-ydpi="96" />
    <path
       style="fill:#ffff00;stroke:none;stroke-width:0.124419px;stroke-linecap:butt;stroke-linejoin:miter;stroke-opacity:1"
       d="m 16.703062,79.695353 6.94963,-0.689294 -8.748357,-9.994731 16.27031,4.997364 -0.163521,-4.13575 6.377306,4.04959 7.11315,-2.92949 4.905626,4.65272 5.886743,-2.84333 1.226409,4.566564 20.276562,-4.135756 -12.427567,8.357666 4.742097,1.723228 -5.968505,3.274142 8.748356,12.321093 -16.597352,-5.68666 -3.270418,5.68666 -4.730025,-3.043083 -4.258552,3.957392 -5.646523,-3.843801 -7.27667,5.255853 -0.817604,-5.772823 -13.735739,3.704948 7.113151,-10.684025 z"
       id="path11428-4-5"
       sodipodi:nodetypes="ccccccccccccccccccccccccc"
       inkscape:export-filename="C:\Users\meleu\OneDrive\Desktop\robo-spiders-in-space\assets\explosion2.png"
       inkscape:export-xdpi="96"
       inkscape:export-ydpi="96" />
    <path
       style="fill:#ffffe1;fill-opacity:1;stroke:none;stroke-width:0.112543px;stroke-linecap:butt;stroke-linejoin:miter;stroke-opacity:1"
       d="m 18.703187,79.187726 6.24976,-0.628688 -7.625011,-9.11585 14.484299,4.557925 -0.05442,-3.772073 5.630615,3.693492 6.446432,-2.671886 4.296942,4.243591 5.344317,-2.59331 0.99831,4.165016 18.281988,-3.772092 -11.334991,7.622749 4.215602,1.571698 -5.427276,2.986236 7.573108,11.237657 -14.762303,-5.18662 -3.060692,5.18662 -4.175327,-2.77549 -3.908558,3.60939 -4.979634,-3.5058 -6.645018,4.79368 -0.604667,-5.26519 -12.404728,3.37916 6.619428,-9.744542 z"
       id="path11428-4-8-6"
       sodipodi:nodetypes="ccccccccccccccccccccccccc"
       inkscape:export-filename="C:\Users\meleu\OneDrive\Desktop\robo-spiders-in-space\assets\explosion2.png"
       inkscape:export-xdpi="96"
       inkscape:export-ydpi="96" />
  </g>
</svg>
