<?xml version="1.0" encoding="UTF-8" standalone="no"?>
<!-- Created with Inkscape (http://www.inkscape.org/) -->

<svg
   width="210mm"
   height="297mm"
   viewBox="0 0 210 297"
   version="1.1"
   id="svg5"
   inkscape:version="1.1.1 (3bf5ae0d25, 2021-09-20)"
   sodipodi:docname="player.svg"
   xmlns:inkscape="http://www.inkscape.org/namespaces/inkscape"
   xmlns:sodipodi="http://sodipodi.sourceforge.net/DTD/sodipodi-0.dtd"
   xmlns="http://www.w3.org/2000/svg"
   xmlns:svg="http://www.w3.org/2000/svg">
  <sodipodi:namedview
     id="namedview7"
     pagecolor="#ffffff"
     bordercolor="#666666"
     borderopacity="1.0"
     inkscape:pageshadow="2"
     inkscape:pageopacity="0.0"
     inkscape:pagecheckerboard="0"
     inkscape:document-units="mm"
     showgrid="false"
     inkscape:zoom="5.9295174"
     inkscape:cx="47.137057"
     inkscape:cy="47.980296"
     inkscape:window-width="1920"
     inkscape:window-height="1017"
     inkscape:window-x="-8"
     inkscape:window-y="1072"
     inkscape:window-maximized="1"
     inkscape:current-layer="layer1" />
  <defs
     id="defs2" />
  <g
     inkscape:label="Layer 1"
     inkscape:groupmode="layer"
     id="layer1">
    <g
       id="g839"
       transform="matrix(0.05845518,0,0,0.05280449,-0.1503419,-0.9315334)"
       inkscape:export-filename="C:\Users\meleu\OneDrive\Desktop\cpp-game\assets\player.png"
       inkscape:export-xdpi="96"
       inkscape:export-ydpi="96">
      <g
         id="g3108"
         transform="translate(53.902644,83.174279)"
         inkscape:export-filename="C:\Users\meleu\OneDrive\Desktop\cpp-game\player.png"
         inkscape:export-xdpi="96"
         inkscape:export-ydpi="96">
        <path
           style="fill:none;stroke:#000000;stroke-width:0.338871px;stroke-linecap:butt;stroke-linejoin:miter;stroke-opacity:1"
           d="m 27.683266,66.951163 c 0,0 -1.42676,-47.468358 10.700697,-89.955474 12.127455,-42.487114 12.127455,-42.487114 12.127455,-42.487114"
           id="path857" />
        <path
           style="fill:none;stroke:#000000;stroke-width:0.338871px;stroke-linecap:butt;stroke-linejoin:miter;stroke-opacity:1"
           d="m 73.33957,66.951163 c 0,0 1.42676,-47.468358 -10.700697,-89.955474 C 50.511418,-65.491425 50.511418,-65.491425 50.511418,-65.491425"
           id="path857-3" />
        <path
           style="fill:none;stroke:#000000;stroke-width:0.264583px;stroke-linecap:butt;stroke-linejoin:miter;stroke-opacity:1"
           d="M 73.357572,66.932087 H 91.563099 L 94.775839,0.53545673 103.34315,68.359974 c 0,0 26.95132,-1.784855 48.90505,20.525843"
           id="path1016" />
        <path
           style="fill:none;stroke:#000000;stroke-width:0.264583px;stroke-linecap:butt;stroke-linejoin:miter;stroke-opacity:1"
           d="M 27.665264,66.932089 H 9.459737 L 6.246997,0.535459 -2.320314,68.359976 c 0,0 -26.95132,-1.784855 -48.90505,20.525843"
           id="path1016-9" />
        <path
           style="fill:none;stroke:#000000;stroke-width:0.315275px;stroke-linecap:butt;stroke-linejoin:miter;stroke-opacity:1"
           d="M -51.175766,88.933539 H 1.9319709 c 0,0 -22.9399779,32.567701 -22.9399779,120.580541"
           id="path1153" />
        <path
           style="fill:none;stroke:#000000;stroke-width:0.321271px;stroke-linecap:butt;stroke-linejoin:miter;stroke-opacity:1"
           d="M 152.20204,88.944505 H 99.099682 c 0,0 22.926128,29.175335 22.926128,120.576575"
           id="path1153-1"
           sodipodi:nodetypes="ccc" />
        <path
           style="fill:none;stroke:#000000;stroke-width:0.264583px;stroke-linecap:butt;stroke-linejoin:miter;stroke-opacity:1"
           d="m -21.008007,209.51408 23.1316925,-16.81391 13.3097615,16.08328 16.337004,-16.40264 18.73845,17.49374 16.241705,-16.53252 14.071332,16.1868 18.05927,-16.77856 23.144602,16.77081"
           id="path1312"
           sodipodi:nodetypes="ccccccccc" />
      </g>
      <path
         style="fill:#ff4300;fill-opacity:1;stroke-width:6.28854"
         d="m 97.810094,286.41898 c -3.435847,-3.24415 -7.58227,-7.11884 -9.21427,-8.61043 l -2.967276,-2.71196 -8.146724,8.14095 -8.146724,8.14095 -6.543407,-7.89838 c -3.598875,-4.34411 -6.639734,-7.89838 -6.757467,-7.89838 -0.117729,0 -5.263814,3.67507 -11.435738,8.16682 l -11.221685,8.16683 -0.116188,-2.18756 c -0.168899,-3.17999 0.583741,-22.32586 1.199164,-30.50467 2.03596,-27.05736 6.836408,-51.63939 13.640499,-69.84995 1.988747,-5.32272 5.265578,-12.5166 6.991851,-15.34976 l 1.305037,-2.14183 -26.402267,-0.0915 -26.402267,-0.0915 2.2723501,-2.11396 C 16.699931,159.50487 31.11575,153.31984 46.944166,151.95979 l 4.969942,-0.42704 3.930577,-31.21798 c 2.601734,-20.663863 4.017543,-30.861426 4.187807,-30.163315 0.141479,0.580071 0.835952,13.825315 1.543279,29.433885 0.707324,15.60856 1.365793,28.90127 1.463261,29.53936 l 0.177215,1.16015 h 9.356888 9.356888 L 81.8013,148.66636 c -0.0708,-0.89017 0.04894,-6.63752 0.266094,-12.77189 0.791432,-22.35752 2.566514,-38.829084 6.143101,-57.003845 1.652405,-8.396857 2.649493,-12.203583 9.692608,-37.004837 l 6.504467,-22.904479 5.63715,19.691739 c 3.10044,10.830454 6.43237,22.743839 7.40429,26.474188 4.1173,15.802723 6.77936,32.524287 8.3678,52.561884 0.63177,7.96956 1.41476,28.83371 1.16557,31.05861 l -0.16992,1.51712 h 9.39971 9.39971 l 0.17654,-1.16015 c 0.0971,-0.63809 0.75145,-13.77016 1.45411,-29.18239 0.70266,-15.41223 1.37805,-28.745104 1.50087,-29.628608 0.16287,-1.171697 1.29887,6.893734 4.19817,29.806438 l 3.97486,31.41281 4.96873,0.42694 c 9.08417,0.78056 17.20454,2.96005 24.97427,6.70305 5.93262,2.85799 10.73487,6.15612 17.14958,11.77813 l 1.42789,1.25144 -26.50511,0.005 c -14.57781,0.003 -26.50511,0.0964 -26.50511,0.20762 0,0.11126 0.38727,0.71365 0.8606,1.33864 1.51005,1.99387 4.75283,8.47342 6.82149,13.63033 7.15042,17.82506 12.12388,42.74667 14.24873,71.39917 0.60342,8.13674 1.38766,28.61691 1.2113,31.63266 l -0.11748,2.009 -11.24459,-8.16172 c -6.18453,-4.48895 -11.35824,-8.12383 -11.49715,-8.07751 -0.13891,0.0463 -4.18639,3.7387 -8.9944,8.2053 -4.80801,4.4666 -8.82337,8.12109 -8.92304,8.12109 -0.0997,0 -3.25894,-3.53401 -7.02061,-7.85336 -3.76167,-4.31935 -6.94296,-7.85337 -7.06955,-7.85337 -0.12659,0 -3.84182,3.61433 -8.25607,8.03185 -4.41424,4.41752 -8.10756,8.02242 -8.20736,8.01088 -0.0998,-0.0115 -2.99261,-2.67527 -6.428456,-5.91942 z"
         id="path3147"
         inkscape:export-filename="C:\Users\meleu\OneDrive\Desktop\cpp-game\player.png"
         inkscape:export-xdpi="96"
         inkscape:export-ydpi="96" />
    </g>
  </g>
</svg>
